<?xml version="1.0" encoding="UTF-8"?>
<svg id="Camada_1" data-name="Camada 1" xmlns="http://www.w3.org/2000/svg" viewBox="0 0 811.54 811.56">
  <defs>
    <style>
      .cls-1 {
        fill: #2e805e;
      }
    </style>
  </defs>
  <path class="cls-1" d="M485.5,522.8l-71.62-71.42-167.52,167.52c74.86,56.62,174.98,68.44,260.96,33.04,69.6-28.92,124.18-86.07,149.37-157.18,20.28-57.25,20.36-120.13.19-177.41-26.55-75.41-86.06-135.19-161.26-162.18-58.17-20.88-122.12-20.65-180.27.13-117.16,42.8-189.5,159.83-173.66,284.45l-113.87,113.83C9.57,507.22.4,458.42.02,409.05c-1.05-107.03,40.53-209.95,115.02-286.26C187.08,48.64,284.72,4.85,388.21.38c115.55-4.99,227.43,39.38,308.26,122.39,69.2,71.06,110.09,164.88,114.64,264.2,5.16,112.48-36.23,221.49-114.99,302.18-71.8,73.55-168.68,117.28-271.59,121.99-32.43,1.48-101.69.92-178.55-32.31-11.01-4.76-59.25-26.21-110.82-71.28-35.34-30.89-59.92-62.09-76.14-85.88,95.25-95.51,190.5-191.02,285.75-286.53l68.99-69.28,92.86,92.77,71.54,71.5-92.66,92.69Z"/>
</svg>